<mxfile host="app.diagrams.net" agent="Mozilla/5.0 (Windows NT 10.0; Win64; x64) AppleWebKit/537.36 (KHTML, like Gecko) Chrome/135.0.0.0 Safari/537.36" version="26.2.13">
  <diagram id="C5RBs43oDa-KdzZeNtuy" name="Page-1">
    <mxGraphModel dx="1215" dy="657" grid="1" gridSize="10" guides="1" tooltips="1" connect="1" arrows="1" fold="1" page="1" pageScale="1" pageWidth="827" pageHeight="1169" math="0" shadow="0">
      <root>
        <mxCell id="WIyWlLk6GJQsqaUBKTNV-0" />
        <mxCell id="WIyWlLk6GJQsqaUBKTNV-1" parent="WIyWlLk6GJQsqaUBKTNV-0" />
        <mxCell id="4ald7kmsFYj5hhfWHZ4V-5" value="U1" style="rounded=1;whiteSpace=wrap;html=1;fontSize=12;glass=0;strokeWidth=1;shadow=0;fillColor=none;" vertex="1" parent="WIyWlLk6GJQsqaUBKTNV-1">
          <mxGeometry x="355" y="122" width="75" height="40" as="geometry" />
        </mxCell>
        <mxCell id="4ald7kmsFYj5hhfWHZ4V-6" value="U2" style="rounded=1;whiteSpace=wrap;html=1;fontSize=12;glass=0;strokeWidth=1;shadow=0;fillColor=none;" vertex="1" parent="WIyWlLk6GJQsqaUBKTNV-1">
          <mxGeometry x="355" y="201" width="75" height="40" as="geometry" />
        </mxCell>
        <mxCell id="4ald7kmsFYj5hhfWHZ4V-8" value="" style="endArrow=classic;html=1;rounded=0;exitX=1;exitY=0.5;exitDx=0;exitDy=0;fillColor=#FF6666;" edge="1" parent="WIyWlLk6GJQsqaUBKTNV-1">
          <mxGeometry width="50" height="50" relative="1" as="geometry">
            <mxPoint x="253" y="141" as="sourcePoint" />
            <mxPoint x="353" y="141" as="targetPoint" />
          </mxGeometry>
        </mxCell>
        <mxCell id="4ald7kmsFYj5hhfWHZ4V-9" value="性能评估函数" style="edgeLabel;html=1;align=center;verticalAlign=middle;resizable=0;points=[];fillColor=#FF6666;" vertex="1" connectable="0" parent="4ald7kmsFYj5hhfWHZ4V-8">
          <mxGeometry x="-0.2256" y="-4" relative="1" as="geometry">
            <mxPoint as="offset" />
          </mxGeometry>
        </mxCell>
        <mxCell id="4ald7kmsFYj5hhfWHZ4V-10" value="" style="endArrow=classic;html=1;rounded=0;exitX=1;exitY=0.5;exitDx=0;exitDy=0;fillColor=#FF6666;" edge="1" parent="WIyWlLk6GJQsqaUBKTNV-1">
          <mxGeometry width="50" height="50" relative="1" as="geometry">
            <mxPoint x="248" y="220" as="sourcePoint" />
            <mxPoint x="356" y="220" as="targetPoint" />
          </mxGeometry>
        </mxCell>
        <mxCell id="4ald7kmsFYj5hhfWHZ4V-11" value="性能评估函数" style="edgeLabel;html=1;align=center;verticalAlign=middle;resizable=0;points=[];fillColor=#FF6666;" vertex="1" connectable="0" parent="4ald7kmsFYj5hhfWHZ4V-10">
          <mxGeometry x="-0.2256" y="-4" relative="1" as="geometry">
            <mxPoint as="offset" />
          </mxGeometry>
        </mxCell>
        <mxCell id="4ald7kmsFYj5hhfWHZ4V-12" value="U1&amp;gt;U2" style="rhombus;whiteSpace=wrap;html=1;fillColor=none;" vertex="1" parent="WIyWlLk6GJQsqaUBKTNV-1">
          <mxGeometry x="470" y="141" width="100" height="80" as="geometry" />
        </mxCell>
        <mxCell id="4ald7kmsFYj5hhfWHZ4V-19" value="选择P1" style="rounded=1;whiteSpace=wrap;html=1;fillColor=none;" vertex="1" parent="WIyWlLk6GJQsqaUBKTNV-1">
          <mxGeometry x="602" y="160" width="76" height="40" as="geometry" />
        </mxCell>
        <mxCell id="4ald7kmsFYj5hhfWHZ4V-20" value="" style="endArrow=classic;html=1;rounded=0;entryX=0;entryY=0.5;entryDx=0;entryDy=0;" edge="1" parent="WIyWlLk6GJQsqaUBKTNV-1" source="4ald7kmsFYj5hhfWHZ4V-12" target="4ald7kmsFYj5hhfWHZ4V-19">
          <mxGeometry width="50" height="50" relative="1" as="geometry">
            <mxPoint x="317" y="411" as="sourcePoint" />
            <mxPoint x="367" y="361" as="targetPoint" />
          </mxGeometry>
        </mxCell>
        <mxCell id="4ald7kmsFYj5hhfWHZ4V-21" value="" style="endArrow=classic;html=1;rounded=0;entryX=0.5;entryY=0;entryDx=0;entryDy=0;exitX=1;exitY=0.5;exitDx=0;exitDy=0;" edge="1" parent="WIyWlLk6GJQsqaUBKTNV-1" source="4ald7kmsFYj5hhfWHZ4V-5" target="4ald7kmsFYj5hhfWHZ4V-12">
          <mxGeometry width="50" height="50" relative="1" as="geometry">
            <mxPoint x="355" y="411" as="sourcePoint" />
            <mxPoint x="405" y="361" as="targetPoint" />
          </mxGeometry>
        </mxCell>
        <mxCell id="4ald7kmsFYj5hhfWHZ4V-22" value="" style="endArrow=classic;html=1;rounded=0;entryX=0.5;entryY=1;entryDx=0;entryDy=0;exitX=1;exitY=0.5;exitDx=0;exitDy=0;" edge="1" parent="WIyWlLk6GJQsqaUBKTNV-1" source="4ald7kmsFYj5hhfWHZ4V-6" target="4ald7kmsFYj5hhfWHZ4V-12">
          <mxGeometry width="50" height="50" relative="1" as="geometry">
            <mxPoint x="355" y="411" as="sourcePoint" />
            <mxPoint x="405" y="361" as="targetPoint" />
          </mxGeometry>
        </mxCell>
        <mxCell id="4ald7kmsFYj5hhfWHZ4V-23" value="" style="group;fillColor=none;" vertex="1" connectable="0" parent="WIyWlLk6GJQsqaUBKTNV-1">
          <mxGeometry x="150" y="121" width="100" height="119" as="geometry" />
        </mxCell>
        <mxCell id="WIyWlLk6GJQsqaUBKTNV-3" value="&lt;span style=&quot;font-weight: normal;&quot;&gt;Pacing Rate P1&lt;/span&gt;" style="rounded=1;whiteSpace=wrap;html=1;fontSize=12;glass=0;strokeWidth=1;shadow=0;fontStyle=1;fillColor=none;" parent="4ald7kmsFYj5hhfWHZ4V-23" vertex="1">
          <mxGeometry width="100" height="40" as="geometry" />
        </mxCell>
        <mxCell id="4ald7kmsFYj5hhfWHZ4V-0" value="Pacing Rate P2" style="rounded=1;whiteSpace=wrap;html=1;fontSize=12;glass=0;strokeWidth=1;shadow=0;fillColor=none;" vertex="1" parent="4ald7kmsFYj5hhfWHZ4V-23">
          <mxGeometry y="79" width="100" height="40" as="geometry" />
        </mxCell>
        <mxCell id="4ald7kmsFYj5hhfWHZ4V-24" value="主动探测" style="text;html=1;align=center;verticalAlign=middle;resizable=0;points=[];autosize=1;strokeColor=none;fillColor=none;" vertex="1" parent="WIyWlLk6GJQsqaUBKTNV-1">
          <mxGeometry x="159" y="68" width="70" height="30" as="geometry" />
        </mxCell>
        <mxCell id="4ald7kmsFYj5hhfWHZ4V-25" value="性能评估" style="text;html=1;align=center;verticalAlign=middle;resizable=0;points=[];autosize=1;strokeColor=none;fillColor=none;" vertex="1" parent="WIyWlLk6GJQsqaUBKTNV-1">
          <mxGeometry x="326" y="68" width="70" height="30" as="geometry" />
        </mxCell>
        <mxCell id="4ald7kmsFYj5hhfWHZ4V-26" value="决策控制" style="text;html=1;align=center;verticalAlign=middle;resizable=0;points=[];autosize=1;strokeColor=none;fillColor=none;" vertex="1" parent="WIyWlLk6GJQsqaUBKTNV-1">
          <mxGeometry x="498" y="68" width="70" height="30" as="geometry" />
        </mxCell>
      </root>
    </mxGraphModel>
  </diagram>
</mxfile>
